# xmcd
# 
# Track frame offsets:
#     150
#     14842
#     31733
#     51943
#     67722
#     84811
#     104300
#     118834
#     133147
#     155067
#     170527
#     188671
# 
# Disc length: 2765
# 
# Revision: 5
# Processed by: cddbd v1.5.2PL0 Copyright (c) Steve Scherf et al.
# Submitted via: fre:ac v1.0.31
# 
DISCID=9a0acb0c
DTITLE=Yuri and Mijares - Acompáñame
DYEAR=2006
DGENRE=Balada
TTITLE0=Me Alimento De Ti
TTITLE1=Simplemente amor
TTITLE2=Es Por Ti
TTITLE3=Te Quiero Así
TTITLE4=Acompáñame
TTITLE5=Para Decir Adiós
TTITLE6=Nada Personal
TTITLE7=Solo Le Pido A Dios
TTITLE8=Callados
TTITLE9=No Me Puedo Escapar De Ti
TTITLE10=Amándote
TTITLE11=Y Llegaste Tú
EXTD=
EXTT0=
EXTT1=
EXTT2=
EXTT3=
EXTT4=
EXTT5=
EXTT6=
EXTT7=
EXTT8=
EXTT9=
EXTT10=
EXTT11=
PLAYORDER=
